<?xml version="1.0" encoding="utf-8"?><svg xmlns="http://www.w3.org/2000/svg" xmlns:xlink="http://www.w3.org/1999/xlink" width="1326" height="619" preserveAspectRatio="xMidYMid" viewBox="0 0 1326 619" style="z-index:1;margin-right:-2px;display:block;background-repeat-y:initial;background-repeat-x:initial;animation-play-state:paused" ><g transform="translate(663,309.5) scale(1,1) translate(-663,-309.5)" style="transform:matrix(1, 0, 0, 1, 0, 0);animation-play-state:paused" ><linearGradient id="lg-0.28716371514918326" x1="0" x2="1" y1="0" y2="0" style="animation-play-state:paused" ><stop stop-color="#040c18" offset="0" style="animation-play-state:paused" ></stop>

  
<stop stop-color="#040c18" offset="1" style="animation-play-state:paused" ></stop></linearGradient>
<path d="M 0 0 L 0 618.214 Q 132.6 552.725 265.2 522.07 T 530.4 445.992 T 795.6 433.301 T 1060.8 280.944 T 1326 277.172 L 1326 0 Z" fill="url(#lg-0.28716371514918326)" opacity="0.4" style="opacity:0.4;animation-play-state:paused" ></path>
<path d="M 0 0 L 0 552.075 Q 132.6 530.911 265.2 513.179 T 530.4 478.057 T 795.6 393.584 T 1060.8 319.566 T 1326 275.055 L 1326 0 Z" fill="url(#lg-0.28716371514918326)" opacity="0.4" style="opacity:0.4;animation-play-state:paused" ></path>
<path d="M 0 0 L 0 594.36 Q 132.6 515.096 265.2 474.596 T 530.4 395.062 T 795.6 376.461 T 1060.8 354.166 T 1326 262.822 L 1326 0 Z" fill="url(#lg-0.28716371514918326)" opacity="0.4" style="opacity:0.4;animation-play-state:paused" ></path>
<path d="M 0 0 L 0 588.832 Q 132.6 560.9 265.2 527.38 T 530.4 464.847 T 795.6 371.057 T 1060.8 359.059 T 1326 296.299 L 1326 0 Z" fill="url(#lg-0.28716371514918326)" opacity="0.4" style="opacity:0.4;animation-play-state:paused" ></path>
<path d="M 0 0 L 0 555.43 Q 132.6 516.461 265.2 485.36 T 530.4 401.563 T 795.6 402.083 T 1060.8 306.358 T 1326 260.409 L 1326 0 Z" fill="url(#lg-0.28716371514918326)" opacity="0.4" style="opacity:0.4;animation-play-state:paused" ></path></g></svg>